{"title":"Merlin (2008) S03EP05 XVID (ENG+NL SUBS) RHoek 2Lions-Team","uid":5881056,"size":365689933,"categoryP":"video","categoryS":"tv_shows","magnet":"?xt=urn:btih:3b505b538518d0c933aa08024aabb9ba9e9747a6&amp;dn=Merlin+%282008%29+S03EP05+XVID+%28ENG%2BNL+SUBS%29+RHoek+2Lions-Team&amp;tr=udp%3A%2F%2Ftracker.openbittorrent.com%3A80&amp;tr=udp%3A%2F%2Fopen.demonii.com%3A1337&amp;tr=udp%3A%2F%2Ftracker.coppersurfer.tk%3A6969&amp;tr=udp%3A%2F%2Fexodus.desync.com%3A6969","seeders":0,"leechers":1,"uploader":"RHoek-2lions","files":-1,"time":1286832947,"description":"FOR ENGLISH, PLEASE SCROLL DOWN!\n\n~~~~~~~~~~~~~~~~~~~~~~~~~~~~~~~~~~~~~~~~~~~~~~~~~~~~~~~~~\nVERHAALLIJN:\nÃ‚Â¯Ã‚Â¯Ã‚Â¯Ã‚Â¯Ã‚Â¯Ã‚Â¯Ã‚Â¯Ã‚Â¯Ã‚Â¯Ã‚Â¯Ã‚Â¯Ã‚Â¯\nEen jaar na haar vlucht uit Camelot, word Morgana gevonden, gehavend en beurs in het woud, ontvoering claimend door bandieten. Oppervlakkig berouwvol en charmant, werkt ze nog steeds voor Morgheuse, voor wie ze tranen verzameld van Pendragon. Deze worden gebruikt om hem te vervloeken en de pop van Mandrake te maken. Deze maakt hem langzaam gek, en als hij begint te hallicuneren, spoken ziend, benadert Morgheuse rivaal Koning Cenred om het gehavende koninkrijk binnen te vallen en als eerste Merlin gevangen te nemen. Deze roept echter de Grote Draak op om hem te bevrijden.\n\n~~~~~~~~~~~~~~~~~~~~~~~~~~~~~~~~~~~~~~~~~~~~~~~~~~~~~~~~~\n- Titel: Merlin (2008) S03EP03 XVID (ENG+NL SUBS) RHoek 2Lions-Team\n- Bron: .avi\n- Genre : Fantasy\n- Ondertitelingen: Engels door 'onbekend' &amp; Nederlands door Regeer van Bierdopje.com. Superwerk weer Regeer!\n\nIMDb: http://www.imdb.com/title/tt1199099/\nOfficiÃƒÂ«le website: http://www.bbc.co.uk/merlin/\n\n~~~~~~~~~~~~~~~~~~~~~~~~~~~~~~~~~~~~~~~~~~~~~~~~~~~~~~~~~\nSTORY LINE:\nÃ‚Â¯Ã‚Â¯Ã‚Â¯Ã‚Â¯Ã‚Â¯Ã‚Â¯Ã‚Â¯Ã‚Â¯Ã‚Â¯Ã‚Â¯Ã‚Â¯\nA year after her flight from Camelot, Morgana is found,dishevelled and bruised in the forest,claiming abduction by bandits. Superficially contrite and charming,she is still in league with Morghause,for whom she collects tears shed by Pendragon. These are used to curse him and fashion a doll from mandrake,which Morgana places under his bed.It slowly starts to drive him mad and, as he begins to hallucinate,seeing ghosts,Morghause approaches rival king Cenred to invade the weakened kingdom,having first taken Merlin prisoner. However Merlin summons the Great Dragon to come and free him.\n\n~~~~~~~~~~~~~~~~~~~~~~~~~~~~~~~~~~~~~~~~~~~~~~~~~~~~~~~~~\n- Title: Merlin (2008) S03EP03 XVID (ENG+NL SUBS) RHoek 2Lions-Team\n- Source: .avi\n- Genre : Fantasy\n- Subtitles: English by 'unknown' &amp; Dutch by Regeer from Bierdopje.com.\n\nIMDb: http://www.imdb.com/title/tt1199099/\nOfficial website: http://www.bbc.co.uk/merlin/\n\n~~~~~~~~~~~~~~~~~~~~~~~~~~~~~~~~~~~~~~~~~~~~~~~~~~~~~~~~~\nVIDEO AND AUDIO INFORMATION\nÃ‚Â¯Ã‚Â¯Ã‚Â¯Ã‚Â¯Ã‚Â¯Ã‚Â¯Ã‚Â¯Ã‚Â¯Ã‚Â¯Ã‚Â¯Ã‚Â¯Ã‚Â¯Ã‚Â¯Ã‚Â¯Ã‚Â¯Ã‚Â¯Ã‚Â¯Ã‚Â¯Ã‚Â¯Ã‚Â¯Ã‚Â¯Ã‚Â¯Ã‚Â¯Ã‚Â¯Ã‚Â¯Ã‚Â¯Ã‚Â¯Ã‚Â¯Ã‚Â¯Ã‚Â¯\nFormat                           : AVI\nFormat/Info                      : Audio Video Interleave\nFile size                        : 349 MiB\nDuration                         : 43mn 2s\nOverall bit rate                 : 1 132 Kbps\n\nVideo\nID                               : 0\nFormat                           : MPEG-4 Visual\nFormat profile                   : Advanced Simple@L5\nFormat settings, BVOP            : Yes\nFormat settings, QPel            : No\nFormat settings, GMC             : No warppoints\nFormat settings, Matrix          : Default (H.263)\nCodec ID                         : XVID\nCodec ID/Hint                    : XviD\nDuration                         : 43mn 2s\nBit rate                         : 991 Kbps\nWidth                            : 640 pixels\nHeight                           : 352 pixels\nDisplay aspect ratio             : 16:9\nFrame rate                       : 25.000 fps\nColor space                      : YUV\nChroma subsampling               : 4:2:0\nBit depth                        : 8 bits\nScan type                        : Progressive\nBits/(Pixel*Frame)               : 0.176\nStream size                      : 305 MiB (87%)\nWriting library                  : XviD 1.2.1 (UTC 2008-12-04)\n\nAudio\nID                               : 1\nFormat                           : MPEG Audio\nFormat version                   : Version 1\nFormat profile                   : Layer 3\nMode                             : Joint stereo\nCodec ID                         : 55\nCodec ID/Hint                    : MP3\nDuration                         : 43mn 2s\nBit rate mode                    : Variable\nBit rate                         : 128 Kbps\nChannel(s)                       : 2 channels\nSampling rate                    : 48.0 KHz\nStream size                      : 39.7 MiB (11%)\nAlignment                        : Aligned on interleaves\nInterleave, duration             : 24 ms (0.60 video frame)\nInterleave, preload duration     : 59 ms\nWriting library                  : LAME3.90.\nEncoding settings                : -m j -V 4 -q 2 -lowpass 17.6 --abr 128\n\n*****************************************\n\nBrought to you by\n2Lions Team\n\nMeer zien??\nKom dan eens kijken op ons forum\n &lt;a href=&quot;\nhttp://www.2lions-site.nl&quot; rel=&quot;nofollow&quot; target=&quot;_NEW&quot;&gt;\nhttp://www.2lions-site.nl&lt;/a&gt;\n\n2Lions the site to be for all your Dutch MOVIES and more\n\n******************************************","torrent":{"xt":"urn:btih:3b505b538518d0c933aa08024aabb9ba9e9747a6","amp;dn":"Merlin+%282008%29+S03EP05+XVID+%28ENG%2BNL+SUBS%29+RHoek+2Lions-Team","amp;tr":["udp%3A%2F%2Ftracker.openbittorrent.com%3A80","udp%3A%2F%2Fopen.demonii.com%3A1337","udp%3A%2F%2Ftracker.coppersurfer.tk%3A6969","udp%3A%2F%2Fexodus.desync.com%3A6969"],"infoHash":"3b505b538518d0c933aa08024aabb9ba9e9747a6","infoHashBuffer":{"type":"Buffer","data":[59,80,91,83,133,24,208,201,51,170,8,2,74,171,185,186,158,151,71,166]},"announce":[],"urlList":[]}}